<?xml version="1.0" standalone="no"?><!DOCTYPE svg PUBLIC "-//W3C//DTD SVG 1.1//EN" "http://www.w3.org/Graphics/SVG/1.1/DTD/svg11.dtd"><svg t="1683636120066" class="icon" viewBox="0 0 1024 1024" version="1.1" xmlns="http://www.w3.org/2000/svg" p-id="1538" xmlns:xlink="http://www.w3.org/1999/xlink" width="200" height="200"><path d="M512.512 390.592c-29.888 0-57.92 11.584-79.104 32.832a111.36 111.36 0 0 0-32.832 79.104c0 29.888 11.712 57.856 32.832 79.104 21.184 21.12 49.216 32.768 79.104 32.768a111.36 111.36 0 0 0 79.104-32.768 111.36 111.36 0 0 0 32.768-79.104 111.36 111.36 0 0 0-32.768-79.104 110.976 110.976 0 0 0-79.104-32.832z m412.288 235.52l-65.408-55.936a359.296 359.296 0 0 0 0-115.392l65.408-55.872a32 32 0 0 0 9.28-35.2l-0.896-2.56a442.496 442.496 0 0 0-79.552-137.728l-1.856-2.112a32.128 32.128 0 0 0-35.072-9.536l-81.216 28.928a349.184 349.184 0 0 0-99.584-57.536L620.16 98.304a32 32 0 0 0-25.856-25.728l-2.688-0.448a450.624 450.624 0 0 0-158.72 0l-2.752 0.448a32 32 0 0 0-25.792 25.728l-15.808 85.312c-35.904 13.568-69.12 32.896-98.88 57.28L207.872 211.84a32 32 0 0 0-35.072 9.536l-1.792 2.112a445.952 445.952 0 0 0-79.616 137.664l-0.896 2.56a32.128 32.128 0 0 0 9.28 35.2l66.24 56.576a351.552 351.552 0 0 0 0 113.92l-65.984 56.576a32 32 0 0 0-9.344 35.2l0.896 2.56c18.112 50.304 44.8 96.832 79.616 137.728l1.792 2.112a32.128 32.128 0 0 0 35.136 9.472l81.792-29.12a346.24 346.24 0 0 0 98.88 57.344l15.808 85.312a32 32 0 0 0 25.792 25.664l2.688 0.512a448.256 448.256 0 0 0 158.784 0l2.752-0.512a32 32 0 0 0 25.792-25.664l15.68-84.928a351.552 351.552 0 0 0 99.584-57.472l81.28 28.864a32 32 0 0 0 35.008-9.472l1.856-2.112a445.952 445.952 0 0 0 79.552-137.728l0.896-2.56a32.256 32.256 0 0 0-9.472-35.008z m-412.288 52.16a175.808 175.808 0 1 1 0-351.552 175.808 175.808 0 0 1 0 351.552z" p-id="1539"></path></svg>